# xmcd
#
# Track frame offsets:
#	150
#	15183
#	31281
#	46099
#	59980
#	74224
#	86955
#	105168
#	119265
#	132469
#	147894
#	164795
#	179428
#	191353
#	205618
#
# Disc length: 2967 seconds
#
# Revision: 0
# Processed by: cddbd v1.5.1PL0 Copyright (c) Steve Scherf et al.
# Submitted via: dBpowerAMP V4.0
#
DISCID=da0b950f
DTITLE=Sicknature - The Outbreak
DYEAR=1900
DGENRE=Rap
TTITLE0=On The Map
TTITLE1=Rub It In Your Face
TTITLE2=Zip On The Fluid (Feat. J-Ro)
TTITLE3=F.A.M.I.L.Y.
TTITLE4=Speaking From The Outside
TTITLE5=Ouch
TTITLE6=Do It Big (Feat. J-Ro)
TTITLE7=Primitive
TTITLE8=Got It Wrong
TTITLE9=Sacrifice
TTITLE10=All My People (Feat. Gage and Syble)
TTITLE11=Somebody Stop Me (Feat. J-Ro)
TTITLE12=Right and Exact pt. II
TTITLE13=Slip Away (Feat. Coolio)
TTITLE14=Put You In My Rhyme
EXTD=
EXTT0=
EXTT1=
EXTT2=
EXTT3=
EXTT4=
EXTT5=
EXTT6=
EXTT7=
EXTT8=
EXTT9=
EXTT10=
EXTT11=
EXTT12=
EXTT13=
EXTT14=
PLAYORDER=
